<mxfile host="app.diagrams.net" modified="2021-01-06T15:34:37.000Z" agent="5.0 (Windows NT 10.0; Win64; x64) AppleWebKit/537.36 (KHTML, like Gecko) Chrome/87.0.4280.88 Safari/537.36" etag="q_eTIgvTAvFCS3jRjtzz" version="14.1.1" type="github">
  <diagram id="6YHtb4jJdXN91AVZiDK9" name="Page-1">
    <mxGraphModel dx="1422" dy="762" grid="1" gridSize="10" guides="1" tooltips="1" connect="1" arrows="1" fold="1" page="1" pageScale="1" pageWidth="1100" pageHeight="850" math="0" shadow="0">
      <root>
        <mxCell id="qvvxUzaaTfmpM4OTSuOz-0" />
        <mxCell id="qvvxUzaaTfmpM4OTSuOz-1" parent="qvvxUzaaTfmpM4OTSuOz-0" />
      </root>
    </mxGraphModel>
  </diagram>
</mxfile>
